# xmcd
#
# Track frame offsets:
#	150
#	26720
#	41320
#	64485
#	75675
#	99965
#	123608
#	145483
#	159733
#	179275
#
# Disc length: 2666 seconds
#
# Revision: 1
# Processed by: cddbd v1.5.1PL0 Copyright (c) Steve Scherf et al.
# Submitted via: CDex 1.50Beta5
#
DISCID=880a680a
DTITLE=美野春樹 - 宇宙皇子V〜天上篇〜
DYEAR=1989
DGENRE=Pop
TTITLE0=美野春樹/如来の島
TTITLE1=美野春樹/平城京異変
TTITLE2=美野春樹/落葉帰根の詩
TTITLE3=美野春樹/天山を前にして
TTITLE4=美野春樹/さらばいとしの客人
TTITLE5=美野春樹/光の世界
TTITLE6=美野春樹/苦痛楽土
TTITLE7=美野春樹/父神よ
TTITLE8=ダ・カーポ/珍御子よ
TTITLE9=美野春樹/七星剣に祈る
EXTD=
EXTT0=
EXTT1=
EXTT2=
EXTT3=
EXTT4=
EXTT5=
EXTT6=
EXTT7=
EXTT8=
EXTT9=
PLAYORDER=
